<svg xmlns="http://www.w3.org/2000/svg" viewBox="0 0 367.8 62.45"><defs><style>.cls-1{fill:#343a40;}.cls-2{fill:#6564ad;fill-rule:evenodd;}</style></defs><title>logo_light</title><g id="Capa_2" data-name="Capa 2"><g id="Capa_1-2" data-name="Capa 1"><path class="cls-1" d="M98.66,30.86c0-8.09,5.91-14.32,14.83-14.32a15.31,15.31,0,0,1,9.2,2.7l-2.42,4.36a10.83,10.83,0,0,0-6.46-1.94c-5.75,0-9.52,3.61-9.52,9.16S108,40,113.81,40a11.41,11.41,0,0,0,6.5-1.86l2.38,4.32a15,15,0,0,1-9.2,2.66C104.53,45.14,98.66,38.91,98.66,30.86Z"/><path class="cls-1" d="M152.2,16.9V44.78h-5.47V33.24H132.45V44.78H127V16.9h5.47V28.4h14.28V16.9Z"/><path class="cls-1" d="M178.18,40v4.8H159V16.9h19.11v4.84H164.42v6.54h12v4.84h-12V40Z"/><path class="cls-1" d="M207.77,44.78,207.53,28l-7.69,13.49h-3.41L188.89,28l-.28,16.74h-5.35l.87-27.88h3.45l10.55,18.32L208.92,16.9h3.41l.83,27.88Z"/><path class="cls-1" d="M219.55,16.9H225V44.78h-5.48Z"/><path class="cls-1" d="M229.39,41.77l2.74-4.37a12.71,12.71,0,0,0,8.2,3c2.5,0,4.37-1.07,4.37-3.33s-1.59-3.22-5.75-4.37c-4.72-1.3-8.41-3.13-8.41-8s4-8.13,10-8.13a14.7,14.7,0,0,1,9.32,2.86l-2.5,4.12a11.13,11.13,0,0,0-6.86-2.22c-2.53,0-4.44.95-4.44,3s1.83,2.65,5.67,3.8c4.72,1.39,8.37,3.22,8.37,8.57s-3.93,8.45-9.87,8.45A17,17,0,0,1,229.39,41.77Z"/><path class="cls-1" d="M276.27,21.74H267v23h-5.47v-23h-9.28V16.9h24Z"/><path class="cls-1" d="M295.74,44.78l-5.43-8h-4.8v8H280V16.9H290c6.78,0,11.31,3.85,11.31,10.07a9.11,9.11,0,0,1-5.48,8.61l6.39,9.2ZM285.51,32h4c3.69,0,6.1-2,6.1-5,0-3.33-2.45-5.27-6.06-5.27h-4.05Z"/><path class="cls-1" d="M318,33.91V44.78h-5.48V33.91l-10.23-17h6.54l6.67,11.62,6.66-11.62h6.19Z"/><path class="cls-1" d="M335.44,33.76V16.9h1.94V33.83c0,5.91,3.69,9.48,9.44,9.48s9.2-3.57,9.2-9.48V16.9h1.86V33.76c0,7.25-4.44,11.38-11.1,11.38C339.92,45.14,335.44,41,335.44,33.76Z"/><path class="cls-1" d="M365.94,16.9h1.86V44.78h-1.86Z"/><path class="cls-2" d="M62,32.42c-1.5,1-4.49,2.36-9.44,2.36-9.89,0-14.19-6.45-23.22-6.45a26.26,26.26,0,0,0-11.82,2.89.44.44,0,0,0-.09.72L40.12,54.6,62.17,32.55Z"/><polygon class="cls-1" points="35.58 4.36 31.22 0 0 31.22 0.01 31.23 0 31.23 31.22 62.45 35.58 58.09 8.71 31.23 35.58 4.36"/><polygon class="cls-1" points="79.28 31.22 48.06 0 43.7 4.36 70.57 31.23 43.7 58.09 48.06 62.45 79.28 31.23 79.28 31.23 79.28 31.22"/></g></g></svg>